<svg width="200" height="150" viewBox="0 0 1000 925" fill="none" xmlns="http://www.w3.org/2000/svg">
<path d="M209.87 307.999C207.07 312.679 201.21 314.659 196.17 315.669C189.73 316.989 183.07 317.339 176.55 317.919L172.76 318.849C172.043 319.07 171.376 319.431 170.799 319.91C170.221 320.39 169.744 320.979 169.395 321.643C169.045 322.307 168.831 323.034 168.763 323.782C168.695 324.529 168.776 325.283 169 325.999C171.345 334.069 174.571 341.855 178.62 349.219L172.62 355.219C170.92 352.919 170.84 348.889 168.56 349.279C166.37 347.089 163.77 346.019 161.08 348.949C155.82 354.699 156.67 366.649 164.4 369.949L162.67 378.559C162.073 381.569 160.452 384.28 158.082 386.229C155.711 388.178 152.739 389.245 149.67 389.249L151 379.059C142 383.609 131.79 373.769 132.5 365.659C132.96 360.099 131.7 356.259 127.59 352.229C127.32 351.959 128.97 350.959 128.72 350.689C127.56 347.179 127.4 343.079 128.55 340.759C130.55 336.619 136.44 334.199 133.73 329.679C132.541 327.709 131.673 325.562 131.16 323.319C130.616 320.345 130.715 317.289 131.452 314.356C132.189 311.424 133.545 308.683 135.43 306.319C139.43 301.519 145.93 302.809 151.24 301.109C157.71 299.109 160.7 292.179 167.47 290.039C170.84 288.969 173.96 289.459 177.33 290.229C180.18 290.889 183 291.629 185.8 292.509C188.6 293.389 191.06 294.119 193.8 293.299C197.42 292.299 200.21 288.919 204.16 288.889C206.131 288.844 208.06 289.46 209.64 290.639C212.56 295.889 212.58 303.509 209.87 307.999Z" fill="#B557FF"/>
<path d="M86.1101 443.4C86.1101 443.4 -22.7599 323.32 137.57 263.4C146.867 259.991 156.557 257.767 166.41 256.78C192 254.06 248.57 244.39 255.09 211.73" stroke="#CCDDE2" stroke-width="4.11" stroke-miterlimit="10"/>
<path d="M543.13 275.3V275.27" stroke="#CCDDE2" stroke-width="4.11" stroke-miterlimit="10"/>
<path d="M257.47 491.51V491.48" stroke="black" stroke-width="4.11" stroke-miterlimit="10"/>
<path d="M172.35 354.42C171.284 352.578 170.016 350.86 168.57 349.3C166.38 347.11 163.78 346.04 161.09 348.97C155.83 354.72 156.68 366.67 164.41 369.97L162.68 378.58C162.083 381.59 160.462 384.3 158.092 386.249C155.721 388.198 152.749 389.266 149.68 389.27" stroke="black" stroke-width="4.11" stroke-linecap="round" stroke-linejoin="round"/>
<path d="M144.84 427.369C145.28 424.029 146.37 415.259 147.42 406.899C148.42 399.149 149.31 391.689 149.66 389.229L151 379.059" stroke="black" stroke-width="4.11" stroke-linecap="round" stroke-linejoin="round"/>
<path d="M206.58 327.16C206.58 327.16 193.81 327.79 191.34 338.36" stroke="black" stroke-width="4.11" stroke-miterlimit="10"/>
<path d="M211.22 355.09C214.7 355 219.22 354.49 220.86 350.96L212.06 341.25C209.913 338.871 208.643 335.83 208.46 332.63C208.11 327.26 208.74 318.74 203.6 313.07" stroke="black" stroke-width="4.11" stroke-miterlimit="10"/>
<path d="M203.695 341.649C205.136 340.055 205.207 337.773 203.855 336.551C202.503 335.328 200.239 335.63 198.799 337.224C197.358 338.817 197.286 341.1 198.638 342.322C199.99 343.544 202.254 343.243 203.695 341.649Z" fill="black"/>
<path d="M202.83 418.87L196.2 386.73" stroke="black" stroke-width="4.11" stroke-miterlimit="10"/>
<path d="M370.9 563.519L328.17 598.459C379.58 676.859 340.67 691.249 340.67 691.249C333.122 692.694 325.501 693.719 317.84 694.319C280.68 696.999 242.56 687.409 211.93 665.929C149.93 622.429 95.9298 535.369 124.73 459.569C127.153 453.158 130.114 446.962 133.58 441.049C136.567 435.909 140.37 431.289 144.84 427.369C152.664 420.52 162.299 416.075 172.588 414.569C182.876 413.063 193.381 414.56 202.84 418.879C206.461 420.532 209.886 422.585 213.05 424.999C229.24 437.389 243.96 454.999 256.65 473.479C267.917 490.191 278.057 507.637 287 525.699C289.47 530.629 291.71 535.289 293.69 539.559C311.64 532.299 326.69 519.969 340.69 506.649C323.76 538.249 370.9 563.519 370.9 563.519Z" fill="#353642"/>
<path d="M341 589.078C340.18 589.708 339.33 590.368 338.48 590.998" stroke="black" stroke-width="4.11" stroke-miterlimit="10"/>
<path d="M214.67 456.25C226.003 477.95 237.337 499.69 248.67 521.47C257.22 537.91 271.67 548.06 292.02 540.27C314.16 531.79 332.02 515.58 348.54 499.06C365.06 482.54 381.8 466.74 405.65 462.48C436.48 456.97 465.65 473.77 486.65 495C488.266 496.619 489.288 498.736 489.551 501.008C489.814 503.28 489.303 505.575 488.1 507.52C487.328 508.764 486.297 509.828 485.078 510.638C483.858 511.448 482.478 511.986 481.032 512.214C479.585 512.443 478.107 512.357 476.697 511.963C475.287 511.569 473.978 510.876 472.86 509.93C462.91 501.44 446.72 489.16 435.46 489" stroke="black" stroke-width="4.11" stroke-miterlimit="10"/>
<path d="M404.74 518.129C408.2 520.439 413 522.999 417 522.999" stroke="black" stroke-width="4.11" stroke-miterlimit="10"/>
<path d="M449.08 493.211C456.46 496.861 459.15 507.541 453.94 513.921C447.334 522.118 439.057 528.813 429.66 533.561C419.38 538.691 412.78 535.561 402.66 529.301" stroke="black" stroke-width="4.11" stroke-miterlimit="10"/>
<path d="M432 502.781C432 502.781 446.62 506.401 446.23 520.591C446.204 521.196 446.096 521.795 445.91 522.371" stroke="black" stroke-width="4.11" stroke-miterlimit="10"/>
<path d="M421.67 511.719C421.67 511.719 441.28 524.389 431.95 532.359" stroke="black" stroke-width="4.11" stroke-miterlimit="10"/>
<path d="M800.48 561.379C777.38 624.869 712.71 626.659 705.31 626.659C708.41 620.129 709.25 608.659 702.46 588.559C707.009 581.917 709.403 574.036 709.319 565.985C709.235 557.935 706.677 550.106 701.99 543.559C702.08 543.479 702.13 543.369 702.21 543.289C705.444 543.092 708.653 542.607 711.8 541.839C722.96 539.179 744.96 533.339 762.42 525.119C774.26 519.529 788.07 528.489 787.06 541.559C787.06 541.729 787.06 541.889 787 542.079C789.312 542.078 791.59 542.634 793.64 543.702C795.69 544.77 797.452 546.317 798.776 548.213C800.099 550.108 800.945 552.294 801.242 554.587C801.539 556.879 801.278 559.21 800.48 561.379Z" fill="#B557FF"/>
<path d="M504.05 710.291C496.27 723.641 484.16 735.011 472.46 744.931C431.27 779.791 377.46 797.491 323.46 798.181C269.28 797.491 215.27 779.731 173.89 745.181C43.1399 636.001 66.7699 507.091 87.9199 447.401C88.6648 445.337 89.6732 443.378 90.9199 441.571C92.5736 439.152 94.7205 437.11 97.2196 435.58C99.7187 434.049 102.513 433.065 105.42 432.691C116.52 434.221 126.6 443.431 124.82 457.691C124.82 458.241 124.6 459.001 124.55 459.551C95.7699 535.351 149.79 622.411 211.75 665.911C239.86 685.641 274.28 695.341 308.48 694.711H308.87C311.803 694.651 314.733 694.515 317.66 694.301C336.87 692.901 355.54 688.301 374.03 682.731C395.73 676.241 417.19 668.371 438.87 662.861C446.49 660.921 454.13 659.051 461.81 657.301C466.242 656.392 470.775 656.079 475.29 656.371C501.92 658.171 520.63 681.851 504.05 710.291Z" fill="#D7E8F0"/>
<path d="M510.63 710.291C502.85 723.641 490.73 735.011 479.03 744.931C436.2 781.211 379.69 798.931 323.43 798.181C269.25 797.491 215.24 779.731 173.86 745.181C43.1401 636.001 66.7701 507.091 87.9201 447.401C88.6651 445.337 89.6734 443.378 90.9201 441.571C92.5738 439.152 94.7207 437.11 97.2198 435.58C99.7189 434.049 102.514 433.065 105.42 432.691C116.52 434.221 126.6 443.431 124.82 457.691C124.82 458.241 124.6 459.001 124.55 459.551C95.7701 535.351 149.79 622.411 211.75 665.911C239.86 685.641 274.28 695.341 308.48 694.711H308.87C314.023 694.791 319.147 694.655 324.24 694.301C343.45 692.901 362.11 688.301 380.61 682.731C402.31 676.241 423.77 668.371 445.45 662.861C453.06 660.921 460.71 659.051 468.38 657.301C470.66 656.835 472.968 656.524 475.29 656.371C505.23 654.361 528.55 679.551 510.63 710.291Z" fill="#D7E8F0"/>
<path d="M332.46 797.998L345.62 816.618C345.62 816.618 425.25 819.718 468.83 856.298C476.89 863.068 472.07 876.218 461.55 876.218C458.912 876.227 456.357 875.299 454.34 873.598C444.05 864.958 404.74 837.798 315.82 836.978C229.18 836.168 195.95 862.978 186.76 872.748C185.712 873.852 184.449 874.729 183.049 875.326C181.649 875.922 180.142 876.226 178.62 876.218H176.91C166.11 876.218 161.54 862.578 170.07 855.958C206.45 827.668 288 818.648 288 818.648L301.92 797.648" fill="#353642"/>
<path d="M684.87 694.75C684.87 694.75 709.26 717.92 701.65 789.75C701.095 794.879 699.312 799.798 696.45 804.09L693.8 808.09C689.454 814.598 682.901 819.315 675.35 821.37C659.42 825.72 630.52 835.8 612.67 854.9C605.13 862.99 610.74 876.17 621.8 876.17C623.862 876.176 625.894 875.671 627.714 874.701C629.533 873.731 631.085 872.325 632.23 870.61C639.5 859.67 661.51 836.44 714.6 836.93C774.48 837.48 798.6 861.29 806.33 871.55C807.398 872.981 808.784 874.143 810.38 874.945C811.975 875.747 813.735 876.166 815.52 876.17C817.758 876.165 819.946 875.508 821.816 874.278C823.685 873.049 825.156 871.3 826.047 869.247C826.937 867.194 827.209 864.925 826.83 862.72C826.45 860.514 825.436 858.467 823.91 856.83C800.56 831.46 772 822 756.24 818.49C748.322 816.783 741.327 812.179 736.63 805.58C733.034 800.49 730.988 794.467 730.74 788.24C729.86 765.97 729.4 711.91 744.49 694.77" fill="#353642"/>
<path d="M374.23 682.759C417.12 661.939 463.67 648.279 509.44 635.419C555.5 622.479 602.01 611.189 648.66 600.579C667.3 596.349 686.11 592.579 704.66 587.809" stroke="black" stroke-width="4.11" stroke-miterlimit="10"/>
<path d="M414.47 522.711H414.5H414.52" stroke="black" stroke-width="4.11" stroke-miterlimit="10"/>
<path d="M409.66 520.001C406.97 522.661 397.37 536.871 394.96 539.421C381.72 553.61 367.656 567.007 352.84 579.541C349.11 582.641 345.16 585.841 341 589.081C340.18 589.711 339.33 590.371 338.48 591.001C310.28 612.401 273.48 633.001 239.48 619.801C238.58 619.471 237.7 619.091 236.83 618.701C184.68 595.351 148.23 536.871 145.05 480.421C144.94 478.581 144.88 476.751 144.86 474.941C144.58 459.511 146.86 444.081 161.66 435.941" stroke="black" stroke-width="4.11" stroke-miterlimit="10"/>
<path d="M124.81 459.35L125.02 457.71C128.34 431.09 90.5401 422.11 81.5701 447.4C60.4301 507.08 36.7901 635.96 167.57 745.16C251.98 815.67 388.64 816.16 472.73 744.93C484.43 735.02 496.54 723.63 504.33 710.28C524.04 676.52 493.94 649.45 459.99 657.76" stroke="black" stroke-width="4.11" stroke-miterlimit="10"/>
<path d="M332.46 797.998L345.62 816.618C345.62 816.618 425.25 819.718 468.83 856.298C476.89 863.068 472.07 876.218 461.55 876.218C458.912 876.227 456.357 875.299 454.34 873.598C444.05 864.958 404.74 837.798 315.82 836.978C229.18 836.168 195.95 862.978 186.76 872.748C185.712 873.852 184.449 874.729 183.049 875.326C181.649 875.922 180.142 876.226 178.62 876.218H176.91C166.11 876.218 161.54 862.578 170.07 855.958C206.45 827.668 288 818.648 288 818.648L301.92 797.648" stroke="black" stroke-width="4.11" stroke-miterlimit="10"/>
<path d="M288 524.102C321.38 515.102 335.13 468.012 340.67 436.352" stroke="black" stroke-width="4.11" stroke-miterlimit="10"/>
<path d="M256.62 473.509C265.893 472.295 274.7 468.723 282.198 463.134C289.697 457.546 295.637 450.128 299.45 441.589C300.248 439.89 300.636 438.029 300.584 436.153C300.532 434.277 300.041 432.44 299.15 430.789C295.51 424.049 290.08 416.239 291.37 408.159C292.3 402.459 296.99 398.449 302.37 397.159C305.097 396.444 307.969 396.493 310.67 397.299C312.289 397.758 313.786 398.571 315.052 399.679C316.318 400.788 317.321 402.164 317.99 403.709C319.3 406.779 317.74 409.819 315.33 411.819C312.92 413.819 310.1 414.529 307.16 415.329C306.78 415.439 305.74 415.659 304.59 415.879" stroke="black" stroke-width="4.11" stroke-miterlimit="10"/>
<path d="M704.62 587.79C704.62 587.79 770.42 574.01 782.78 554.16C785.097 550.541 786.541 546.433 787 542.16" stroke="black" stroke-width="4.11" stroke-miterlimit="10"/>
<path d="M380.84 553.89C495.61 541.7 625.15 543.5 625.15 543.5H697.85C702.548 543.507 707.231 542.956 711.8 541.86C722.96 539.2 744.96 533.37 762.42 525.14C774.26 519.55 788.07 528.51 787.06 541.59C787.06 541.75 787.06 541.92 787 542.11C789.307 542.111 791.579 542.668 793.625 543.733C795.671 544.799 797.43 546.342 798.753 548.232C800.075 550.122 800.923 552.303 801.224 554.59C801.524 556.877 801.269 559.203 800.48 561.37C775.96 628.76 704.62 626.65 704.62 626.65C695.5 626.92 686.4 627.28 677.27 627.75C596.84 631.66 517.12 642.95 439.08 662.88C417.4 668.39 395.94 676.25 374.24 682.75C355.74 688.34 337.05 692.91 317.84 694.31C280.68 697 242.56 687.4 211.93 665.92C144.84 618.84 87.1 520.68 133.58 441C149.99 412.88 187.15 405.18 213.05 425C249.58 452.95 278.76 507.4 293.73 539.52" stroke="black" stroke-width="4.11" stroke-miterlimit="10"/>
<path d="M798.96 694.75H639.24" stroke="black" stroke-width="4.11" stroke-miterlimit="10"/>
<path d="M607 662.489C607.024 653.939 610.43 645.747 616.474 639.7C622.519 633.654 630.711 630.245 639.26 630.219H799C807.551 630.242 815.745 633.65 821.792 639.697C827.839 645.743 831.246 653.938 831.27 662.489" stroke="black" stroke-width="4.11" stroke-miterlimit="10"/>
<path d="M834.41 673.93C834.418 676.667 833.885 679.379 832.84 681.909C831.796 684.44 830.262 686.738 828.326 688.673C826.39 690.608 824.091 692.141 821.56 693.184C819.029 694.227 816.317 694.759 813.58 694.75H624.58C619.849 694.302 615.483 692.016 612.42 688.383C609.357 684.749 607.842 680.059 608.201 675.321C608.56 670.582 610.764 666.173 614.339 663.043C617.915 659.912 622.576 658.31 627.32 658.58H816.32C819.675 658.575 822.982 659.382 825.956 660.934C828.931 662.486 831.485 664.735 833.4 667.49C834.069 669.571 834.41 671.744 834.41 673.93Z" fill="#D7E8F0"/>
<path d="M834.41 673.929C834.418 676.666 833.884 679.378 832.84 681.908C831.796 684.438 830.262 686.737 828.326 688.672C826.39 690.607 824.09 692.14 821.56 693.183C819.029 694.226 816.317 694.758 813.58 694.749H624.58C621.807 694.81 619.049 694.316 616.469 693.297C613.89 692.277 611.539 690.753 609.557 688.813C607.574 686.873 605.998 684.557 604.923 682C603.847 679.444 603.293 676.698 603.293 673.924C603.293 671.15 603.847 668.404 604.923 665.847C605.998 663.29 607.574 660.974 609.557 659.034C611.539 657.094 613.89 655.57 616.469 654.551C619.049 653.532 621.807 653.038 624.58 653.099H813.58C817.98 653.097 822.268 654.488 825.828 657.073C829.389 659.658 832.039 663.304 833.4 667.489C834.069 669.57 834.409 671.743 834.41 673.929Z" stroke="black" stroke-width="4.11" stroke-miterlimit="10"/>
<path d="M340.31 435.611L339.93 438.821C339.756 440.278 339.055 441.62 337.959 442.595C336.862 443.57 335.447 444.109 333.98 444.111H313.21C311.743 444.109 310.328 443.57 309.231 442.595C308.135 441.62 307.434 440.278 307.26 438.821L304.58 415.821C305.73 415.601 306.77 415.381 307.15 415.271C310.09 414.471 312.94 413.791 315.32 411.761C317.7 409.731 319.32 406.761 317.98 403.651C317.311 402.107 316.308 400.73 315.042 399.622C313.776 398.513 312.279 397.7 310.66 397.241C307.958 396.435 305.087 396.386 302.36 397.101L301.73 391.621C301.637 390.784 301.722 389.936 301.979 389.134C302.235 388.331 302.658 387.592 303.219 386.964C303.78 386.335 304.468 385.832 305.236 385.487C306.005 385.142 306.838 384.963 307.68 384.961H339.55C340.392 384.964 341.223 385.145 341.991 385.49C342.758 385.836 343.444 386.339 344.004 386.967C344.564 387.595 344.986 388.334 345.242 389.136C345.498 389.938 345.583 390.784 345.49 391.621L344.75 397.871" stroke="black" stroke-width="4.11" stroke-miterlimit="10"/>
<path d="M343.08 412.16L343.05 412.38" stroke="black" stroke-width="4.11" stroke-miterlimit="10"/>
<path d="M341.52 425.371V425.281" stroke="black" stroke-width="4.11" stroke-miterlimit="10"/>
<path d="M341.82 425.368C341.731 425.353 341.639 425.353 341.55 425.368C341.424 425.354 341.296 425.354 341.17 425.368C339.874 425.373 338.627 425.864 337.676 426.744C336.725 427.624 336.139 428.83 336.034 430.122C335.93 431.413 336.315 432.697 337.112 433.719C337.909 434.741 339.061 435.426 340.34 435.638C340.891 435.748 341.459 435.748 342.01 435.638C344.506 435.24 346.785 433.98 348.45 432.078C350.669 428.428 352.211 424.407 353 420.208C353.014 420.166 353.014 420.12 353 420.078C353.61 416.984 353.842 413.828 353.69 410.678M353.69 410.678C353.69 409.328 353.52 407.988 353.36 406.678C353.055 404.486 352.053 402.451 350.503 400.872C348.952 399.293 346.936 398.254 344.75 397.908C344.64 397.908 344.51 397.908 344.4 397.848C340.2 397.328 334.31 398.918 333.22 403.658C332.22 407.938 336.86 411.608 340.67 411.938C340.67 411.938 341.67 412.068 343.08 412.158C345.9 412.348 350.59 412.318 353.69 410.678ZM353.69 410.678C354.146 410.442 354.575 410.157 354.97 409.828" stroke="black" stroke-width="4.11" stroke-miterlimit="10"/>
<path d="M346.2 412.391H345.51H340.18H337.83C336.241 412.396 334.715 413.009 333.564 414.105C332.412 415.2 331.724 416.694 331.64 418.281C331.562 419.823 332.059 421.338 333.035 422.535C334.01 423.732 335.394 424.525 336.92 424.761C343.82 425.871 351.7 426.101 353.05 419.921" stroke="black" stroke-width="4.11" stroke-miterlimit="10"/>
<path d="M684.87 694.75C684.87 694.75 709.26 717.92 701.65 789.75C701.095 794.879 699.312 799.798 696.45 804.09L693.8 808.09C689.454 814.598 682.901 819.315 675.35 821.37C659.42 825.72 630.52 835.8 612.67 854.9C605.13 862.99 610.74 876.17 621.8 876.17C623.862 876.176 625.894 875.671 627.714 874.701C629.533 873.731 631.085 872.325 632.23 870.61C639.5 859.67 661.51 836.44 714.6 836.93C774.48 837.48 798.6 861.29 806.33 871.55C807.398 872.981 808.784 874.143 810.38 874.945C811.975 875.747 813.735 876.166 815.52 876.17C817.758 876.165 819.946 875.508 821.816 874.278C823.685 873.049 825.156 871.3 826.047 869.247C826.937 867.194 827.209 864.925 826.83 862.72C826.45 860.514 825.436 858.467 823.91 856.83C800.56 831.46 772 822 756.24 818.49C748.322 816.783 741.327 812.179 736.63 805.58C733.034 800.49 730.988 794.467 730.74 788.24C729.86 765.97 729.4 711.91 744.49 694.77" stroke="black" stroke-width="4.11" stroke-miterlimit="10"/>
<path d="M634.17 526.858V528.478C634.17 539.568 625.23 541.478 617.51 541.668L468.1 545.148C461.55 545.308 456.04 539.588 455.9 532.428V532.128C455.9 525.128 461.06 519.278 467.52 519.128C467.52 519.128 551.11 516.768 615.83 514.988C617.07 518.908 620.07 521.928 623.83 524.298C626.945 526.161 630.545 527.052 634.17 526.858Z" stroke="black" stroke-width="4.11" stroke-miterlimit="10"/>
<path d="M713.59 368.758C713.598 370.583 713.18 372.383 712.37 374.018L645.55 510.998C644.766 512.588 643.644 513.988 642.262 515.099C640.88 516.209 639.272 517.004 637.55 517.428C634.791 518.135 631.87 517.837 629.31 516.588C627.258 515.578 625.531 514.01 624.327 512.065C623.123 510.12 622.49 507.876 622.5 505.588C622.505 505.026 622.545 504.465 622.62 503.908C622.798 502.668 623.169 501.464 623.72 500.338L690.53 363.338C691.737 360.88 693.741 358.902 696.215 357.728C698.689 356.555 701.488 356.253 704.156 356.874C706.824 357.494 709.202 359 710.905 361.145C712.607 363.291 713.532 365.949 713.53 368.688L713.59 368.758Z" stroke="black" stroke-width="4.11" stroke-miterlimit="10"/>
<path d="M172.63 355.239C172.55 354.959 172.44 354.689 172.35 354.419C172.26 354.149 172.13 353.839 172.05 353.539" stroke="black" stroke-width="4.11" stroke-linecap="round" stroke-linejoin="round"/>
<path d="M172.63 355.249L174.68 353.189L178.6 349.219" stroke="black" stroke-width="4.11" stroke-linecap="round" stroke-linejoin="round"/>
<path d="M195.7 360.672C195.7 360.672 198.33 368.522 208.38 369.052" stroke="black" stroke-width="4.11" stroke-miterlimit="10"/>
<path d="M151 379.059C142 383.609 131.79 373.769 132.5 365.659C132.96 360.099 131.7 356.26 127.59 352.229C127.32 351.959 127.07 351.679 126.83 351.409C125.265 349.707 124.248 347.574 123.909 345.286C123.57 342.999 123.926 340.662 124.93 338.579C126.8 334.229 130.83 331.679 128.03 326.989C126.801 324.961 125.904 322.75 125.37 320.439C124.811 317.375 124.916 314.227 125.677 311.206C126.438 308.186 127.837 305.364 129.78 302.929C133.9 297.929 140.61 299.309 146.12 297.559C152.75 295.449 155.85 288.319 162.81 286.129C166.29 285.039 169.52 285.529 173 286.319C175.93 287.009 178.87 287.779 181.72 288.679C184.57 289.579 187.17 290.349 190.02 289.499C193.75 288.409 196.62 284.979 200.68 284.949C204.74 284.919 207.86 287.309 209.68 290.649C212.56 295.889 212.58 303.509 209.87 308.029C207.07 312.709 201.21 314.689 196.17 315.699C189.73 317.019 183.07 317.369 176.55 317.949L172.76 318.879C171.318 319.327 170.113 320.327 169.408 321.662C168.703 322.997 168.556 324.557 169 325.999C171.345 334.069 174.571 341.856 178.62 349.219" stroke="black" stroke-width="4.11" stroke-miterlimit="10"/>
<path d="M178.6 380.208C178.6 380.208 198.44 394.738 209.75 386.728C221.06 378.718 214.67 355.238 214.67 355.238" stroke="black" stroke-width="4.11" stroke-linecap="round" stroke-linejoin="round"/>
<path d="M318.79 374.93C318.79 374.93 310.36 369.23 315.72 363.41C321.08 357.59 313.94 349.91 313.94 349.91" stroke="black" stroke-width="4.11" stroke-miterlimit="10"/>
<path d="M326.57 375.919C326.57 375.919 332.15 372.149 328.57 368.289C324.99 364.429 329.76 359.289 329.76 359.289" stroke="black" stroke-width="4.11" stroke-miterlimit="10"/>
<path d="M365.02 321.602C425.727 321.602 474.94 272.389 474.94 211.682C474.94 150.975 425.727 101.762 365.02 101.762C304.313 101.762 255.1 150.975 255.1 211.682C255.1 272.389 304.313 321.602 365.02 321.602Z" stroke="#CCDDE2" stroke-width="4.11" stroke-miterlimit="10"/>
<path d="M365.02 272.049C398.361 272.049 425.39 245.02 425.39 211.679C425.39 178.337 398.361 151.309 365.02 151.309C331.678 151.309 304.65 178.337 304.65 211.679C304.65 245.02 331.678 272.049 365.02 272.049Z" stroke="#CCDDE2" stroke-width="4.11" stroke-miterlimit="10"/>
<path d="M365.02 222.028C370.736 222.028 375.37 217.394 375.37 211.678C375.37 205.962 370.736 201.328 365.02 201.328C359.304 201.328 354.67 205.962 354.67 211.678C354.67 217.394 359.304 222.028 365.02 222.028Z" stroke="#CCDDE2" stroke-width="4.11" stroke-miterlimit="10"/>
<path d="M386.45 177.121L370.47 202.881" stroke="#CCDDE2" stroke-width="4.11" stroke-miterlimit="10"/>
<path d="M365.02 151.309V162.049" stroke="#CCDDE2" stroke-width="4.11" stroke-miterlimit="10"/>
<path d="M425.39 211.68H415.21" stroke="#CCDDE2" stroke-width="4.11" stroke-miterlimit="10"/>
<path d="M365.02 272.061V261.621" stroke="#CCDDE2" stroke-width="4.11" stroke-miterlimit="10"/>
<path d="M304.64 211.68H313.82" stroke="#CCDDE2" stroke-width="4.11" stroke-miterlimit="10"/>
<path d="M470.37 394.441C492.958 394.441 511.27 376.129 511.27 353.541C511.27 330.952 492.958 312.641 470.37 312.641C447.782 312.641 429.47 330.952 429.47 353.541C429.47 376.129 447.782 394.441 470.37 394.441Z" fill="#B557FF"/>
<path d="M483.82 339.88C483.243 338.55 482.467 337.316 481.52 336.22C479.899 334.303 477.635 333.042 475.152 332.674C472.669 332.306 470.137 332.856 468.03 334.22C466.656 335.116 465.507 336.318 464.674 337.732C463.842 339.146 463.347 340.733 463.23 342.37C461.077 341.581 458.726 341.513 456.531 342.177C454.337 342.84 452.417 344.2 451.063 346.05C449.708 347.9 448.992 350.14 449.022 352.433C449.052 354.725 449.827 356.946 451.23 358.76C454.16 362.58 459.14 365.09 463.65 366.55C466.015 367.307 468.451 367.823 470.92 368.09C472.17 368.23 479.3 369.19 479.92 368.09C484.37 361.13 487.53 348.38 483.82 339.88Z" fill="white"/>
<g opacity="0.72">
<path opacity="0.72" d="M572.31 336.61C584.748 336.61 594.83 326.528 594.83 314.09C594.83 301.653 584.748 291.57 572.31 291.57C559.873 291.57 549.79 301.653 549.79 314.09C549.79 326.528 559.873 336.61 572.31 336.61Z" fill="#B557FF"/>
<path opacity="0.72" d="M582.08 318.079C582.638 317.511 583.103 316.86 583.46 316.149C584.102 314.923 584.275 313.504 583.945 312.16C583.616 310.816 582.807 309.638 581.67 308.849C580.927 308.336 580.076 308.002 579.182 307.873C578.289 307.745 577.377 307.826 576.52 308.109C576.472 306.847 576.014 305.635 575.217 304.656C574.419 303.677 573.325 302.984 572.099 302.681C570.873 302.379 569.582 302.483 568.42 302.979C567.259 303.474 566.29 304.334 565.66 305.429C564.435 307.905 563.959 310.686 564.29 313.429C564.403 314.783 564.65 316.123 565.03 317.429C565.22 318.099 566.22 321.929 566.9 322.049C571.37 322.799 578.53 321.749 582.08 318.079Z" fill="white"/>
</g>
<path d="M540.039 420.435L529.334 443.072C525.452 451.28 528.959 461.08 537.167 464.962L559.803 475.667C568.011 479.549 577.812 476.041 581.694 467.833L592.399 445.197C596.28 436.989 592.773 427.188 584.565 423.307L561.929 412.602C553.721 408.72 543.92 412.227 540.039 420.435Z" fill="#B557FF"/>
<path d="M586.29 449.16L578.54 465.55C576.914 468.964 574.003 471.596 570.444 472.872C566.884 474.147 562.964 473.963 559.54 472.36L539.88 463.06C536.468 461.432 533.838 458.521 532.565 454.961C531.291 451.402 531.476 447.483 533.08 444.06L533.6 442.96C538.94 438.7 548.17 432.96 551.54 440.77C556.39 452.05 562.7 448.41 570.76 443.69C577.49 439.71 585.57 438.38 586.29 449.16Z" fill="white"/>
<path d="M555.84 431.741C559.181 431.741 561.89 429.032 561.89 425.691C561.89 422.349 559.181 419.641 555.84 419.641C552.499 419.641 549.79 422.349 549.79 425.691C549.79 429.032 552.499 431.741 555.84 431.741Z" fill="white"/>
<path d="M658.622 346.43L658.622 346.43C652.985 336.14 640.559 330.352 628.943 333.829L628.94 333.83C624.492 335.131 620.371 337.331 616.219 339.549C615.705 339.823 615.19 340.098 614.674 340.372L614.671 340.373C614.386 340.522 614.1 340.671 613.814 340.819C608.747 343.456 603.7 346.082 599.797 350.06C595.636 354.308 593.072 359.865 592.539 365.788C592.007 371.71 593.54 377.635 596.877 382.556C600.215 387.478 605.151 391.095 610.851 392.792C616.549 394.488 622.658 394.163 628.143 391.87C630.382 390.892 632.902 390.769 635.225 391.524L635.229 391.526C635.666 391.672 636.081 391.982 636.442 392.271C636.557 392.364 636.668 392.455 636.776 392.545C637.032 392.756 637.273 392.955 637.525 393.128C637.88 393.372 638.171 393.501 638.42 393.514C638.63 393.526 638.881 393.46 639.186 393.139C639.646 392.517 639.951 391.794 640.077 391.029L640.082 390.995L640.092 390.963C640.886 388.38 642.393 386.073 644.438 384.306C645.819 383.043 647.373 381.944 648.895 380.879C648.955 380.837 649.015 380.795 649.075 380.753C650.544 379.725 651.974 378.724 653.236 377.608C656.55 374.589 659.022 370.761 660.412 366.498C660.412 366.498 660.412 366.498 660.412 366.498L660.887 366.653C662.303 362.308 662.566 357.668 661.65 353.19L658.622 346.43ZM658.622 346.43C659.801 348.58 660.657 350.892 661.16 353.291L658.622 346.43Z" fill="#B557FF" stroke="black"/>
<path d="M611.3 377.08C614.448 377.08 617 374.528 617 371.38C617 368.232 614.448 365.68 611.3 365.68C608.152 365.68 605.6 368.232 605.6 371.38C605.6 374.528 608.152 377.08 611.3 377.08Z" fill="white"/>
<path d="M626.65 368.869C629.798 368.869 632.35 366.317 632.35 363.169C632.35 360.021 629.798 357.469 626.65 357.469C623.502 357.469 620.95 360.021 620.95 363.169C620.95 366.317 623.502 368.869 626.65 368.869Z" fill="white"/>
<path d="M641.05 361.17C644.198 361.17 646.75 358.618 646.75 355.47C646.75 352.322 644.198 349.77 641.05 349.77C637.902 349.77 635.35 352.322 635.35 355.47C635.35 358.618 637.902 361.17 641.05 361.17Z" fill="white"/>
<path d="M467.26 171.27C467.26 171.27 504.79 287.35 649.26 281.08C697.26 275.08 754.39 281.08 805.26 348.08C882.59 450 851.54 563.539 816.4 635.609" stroke="#CCDDE2" stroke-width="4.11" stroke-miterlimit="10"/>
<g opacity="0.54">
<path opacity="0.54" d="M676.09 216.859C675.948 218.61 675.678 220.348 675.28 222.059L670.78 241.579C669.4 247.579 667.85 253.859 663.57 258.239C655.57 266.399 642.27 264.529 631.15 262.059L603.85 255.999C597.58 254.609 591.21 253.179 585.59 250.069C579.97 246.959 575.09 241.869 573.79 235.579C572.79 230.939 573.86 226.139 574.88 221.519L579 202.779C580.37 196.639 581.91 190.159 586.34 185.689C594.23 177.739 607.34 179.549 618.24 181.919L646.2 187.999C663.06 191.639 677.43 199.459 676.09 216.859Z" fill="#B557FF"/>
<path opacity="0.54" d="M638.44 217.38C639.609 218.467 640.472 219.843 640.94 221.369C641.409 222.896 641.467 224.519 641.11 226.075C640.752 227.631 639.99 229.065 638.902 230.234C637.814 231.402 636.437 232.263 634.91 232.73L626.59 235.28L618.27 237.83C616.743 238.297 615.12 238.354 613.564 237.995C612.009 237.636 610.575 236.875 609.406 235.786C608.238 234.698 607.377 233.322 606.909 231.795C606.441 230.269 606.382 228.646 606.74 227.09L608.74 218.61L610.69 210.14C611.046 208.583 611.806 207.148 612.894 205.978C613.982 204.809 615.358 203.946 616.885 203.478C618.412 203.009 620.035 202.952 621.591 203.31C623.148 203.669 624.582 204.431 625.75 205.52L632.12 211.45L638.44 217.38Z" fill="white"/>
</g>
<path d="M86.48 876.172H950" stroke="black" stroke-width="4.11" stroke-miterlimit="10"/>
</svg>
