<svg width="50" height="50" viewBox="0 0 164 149" fill="gray" xmlns="http://www.w3.org/2000/svg">
<path d="M153.75 15.8964L146.503 9.3125L10.25 133.104L17.4968 139.688L27.7468 130.375H133.25C135.967 130.371 138.572 129.389 140.493 127.643C142.415 125.898 143.496 123.531 143.5 121.062V25.2089L153.75 15.8964ZM133.25 121.062H37.9968L77.9359 84.7763L90.1283 95.8536C92.0504 97.5994 94.6571 98.5801 97.375 98.5801C100.093 98.5801 102.7 97.5994 104.622 95.8536L112.75 88.4688L133.25 107.08V121.062ZM133.25 93.9072L119.997 81.8662C118.075 80.1204 115.468 79.1396 112.75 79.1396C110.032 79.1396 107.425 80.1204 105.503 81.8662L97.375 89.251L85.1929 78.1831L133.25 34.5214V93.9072ZM30.75 102.438V88.4688L56.375 65.2015L63.4116 71.5992L70.6686 65.0059L63.6217 58.6036C61.6996 56.8577 59.0929 55.877 56.375 55.877C53.6571 55.877 51.0504 56.8577 49.1283 58.6036L30.75 75.3009V27.9375H112.75V18.625H30.75C28.0324 18.6275 25.4268 19.6094 23.5052 21.3553C21.5835 23.1012 20.5027 25.4684 20.5 27.9375V102.438H30.75Z" fill="inherit"/>
</svg>
