<svg width="18" height="17" viewBox="0 0 18 17" fill="none" xmlns="http://www.w3.org/2000/svg">
<path d="M16.6 16.0941L10.3 10.4612C9.8 10.8188 9.225 11.102 8.575 11.3106C7.925 11.5192 7.23333 11.6235 6.5 11.6235C4.68333 11.6235 3.146 11.0608 1.888 9.93544C0.63 8.81004 0.000666667 7.43548 0 5.81176C0 4.18745 0.629333 2.81289 1.888 1.68809C3.14667 0.563294 4.684 0.000596078 6.5 0C8.31667 0 9.854 0.562698 11.112 1.68809C12.37 2.81349 12.9993 4.18805 13 5.81176C13 6.46745 12.8833 7.08588 12.65 7.66706C12.4167 8.24823 12.1 8.76235 11.7 9.20941L18 14.8424L16.6 16.0941ZM6.5 9.83529C7.75 9.83529 8.81267 9.44397 9.688 8.66132C10.5633 7.87867 11.0007 6.92882 11 5.81176C11 4.69412 10.5623 3.74397 9.687 2.96132C8.81167 2.17867 7.74933 1.78764 6.5 1.78824C5.25 1.78824 4.18733 2.17956 3.312 2.96221C2.43667 3.74486 1.99933 4.69471 2 5.81176C2 6.92941 2.43767 7.87956 3.313 8.66221C4.18833 9.44486 5.25067 9.83589 6.5 9.83529Z" fill="#201925"/>
</svg>
