<svg width="24" height="24" viewBox="0 0 24 24" fill="white" xmlns="http://www.w3.org/2000/svg">
<path d="M11 10H13C14.414 10 15.121 10 15.56 10.44C16 10.879 16 11.586 16 13V19C16 17.586 16 16.879 16.44 16.44C16.878 16 17.585 16 19 16C20.414 16 21.121 16 21.56 16.44C22 16.879 22 17.586 22 19V22H2C2 20.586 2 19.879 2.44 19.44C2.878 19 3.585 19 5 19C6.414 19 7.121 19 7.56 19.44C8 19.878 8 20.585 8 22V13C8 11.586 8 10.879 8.44 10.44C8.878 10 9.585 10 11 10ZM11.146 3.023C11.526 2.34 11.716 2 12 2C12.284 2 12.474 2.34 12.854 3.023L12.952 3.199C13.06 3.393 13.114 3.489 13.198 3.553C13.283 3.617 13.388 3.641 13.598 3.688L13.788 3.732C14.526 3.899 14.895 3.982 14.983 4.264C15.071 4.547 14.819 4.841 14.316 5.429L14.186 5.581C14.043 5.748 13.971 5.831 13.939 5.935C13.907 6.039 13.918 6.15 13.939 6.373L13.959 6.576C14.035 7.361 14.073 7.754 13.844 7.928C13.614 8.103 13.268 7.943 12.577 7.625L12.399 7.543C12.202 7.453 12.104 7.407 12 7.407C11.896 7.407 11.798 7.453 11.601 7.543L11.423 7.625C10.732 7.943 10.386 8.103 10.156 7.928C9.926 7.754 9.965 7.361 10.041 6.576L10.061 6.373C10.082 6.15 10.093 6.039 10.061 5.935C10.029 5.832 9.957 5.748 9.814 5.581L9.684 5.429C9.181 4.841 8.929 4.547 9.017 4.264C9.105 3.982 9.474 3.899 10.212 3.732L10.402 3.688C10.612 3.641 10.717 3.618 10.802 3.553C10.886 3.489 10.94 3.393 11.048 3.199L11.146 3.023Z" fill="inherit"/>
</svg>
